<svg xmlns="http://www.w3.org/2000/svg" xmlns:xlink="http://www.w3.org/1999/xlink" width="500" zoomAndPan="magnify" viewBox="0 0 375 374.999991" height="500" preserveAspectRatio="xMidYMid meet" version="1.0"><rect x="-37.5" width="450" fill="#ffffff" y="-37.499999" height="449.999989" fill-opacity="1"/><rect x="-37.5" width="450" fill="#ffffff" y="-37.499999" height="449.999989" fill-opacity="1"/><path fill="#b4b3b3" d="M 359.277344 24.21875 C 374.671875 40.316406 374.105469 65.847656 358.003906 81.246094 C 341.90625 96.636719 316.371094 96.066406 300.980469 79.96875 C 285.585938 63.867188 286.15625 38.339844 302.257812 22.945312 C 318.355469 7.546875 343.886719 8.117188 359.277344 24.21875 " fill-opacity="1" fill-rule="nonzero"/><path fill="#d3d2d2" d="M 355.765625 27.582031 C 369.300781 41.738281 368.796875 64.1875 354.644531 77.726562 C 340.488281 91.269531 318.035156 90.765625 304.496094 76.605469 C 290.957031 62.449219 291.457031 39.996094 305.617188 26.457031 C 319.769531 12.917969 342.226562 13.417969 355.765625 27.582031 " fill-opacity="1" fill-rule="nonzero"/><path fill="#e0e0e0" d="M 347.964844 35.039062 C 357.378906 44.890625 357.03125 60.507812 347.179688 69.925781 C 337.332031 79.347656 321.710938 78.996094 312.296875 69.148438 C 302.878906 59.292969 303.226562 43.675781 313.078125 34.261719 C 322.925781 24.839844 338.542969 25.191406 347.964844 35.039062 " fill-opacity="1" fill-rule="nonzero"/><path fill="#1f1b20" d="M 320.304688 245.855469 C 291.035156 326.148438 202.214844 367.507812 121.921875 338.234375 C 41.628906 308.953125 0.269531 220.132812 29.546875 139.84375 C 58.820312 59.550781 147.644531 18.195312 227.9375 47.472656 C 308.222656 76.75 349.578125 165.566406 320.304688 245.855469 " fill-opacity="1" fill-rule="nonzero"/><path fill="#29242c" d="M 313.183594 243.257812 C 285.34375 319.617188 200.875 358.953125 124.515625 331.109375 C 48.164062 303.269531 8.828125 218.796875 36.667969 142.441406 C 64.515625 66.082031 148.980469 26.75 225.335938 54.59375 C 301.695312 82.4375 341.023438 166.90625 313.183594 243.257812 " fill-opacity="1" fill-rule="nonzero"/><path fill="#38333f" d="M 41.417969 254.753906 C 27.359375 224.429688 23.5625 189.351562 32.660156 155.15625 C 95.4375 163.871094 167.726562 172.792969 167.726562 172.792969 C 167.726562 172.792969 271.027344 124.957031 298.359375 112.714844 C 320.050781 146.167969 327.960938 188.042969 317.644531 228.792969 C 232.550781 216.160156 177.132812 211.085938 177.132812 211.085938 C 177.132812 211.085938 101.972656 235.71875 41.417969 254.753906 " fill-opacity="1" fill-rule="nonzero"/><path fill="#3b343e" d="M 174.914062 332.976562 C 158.980469 332.976562 142.777344 330.234375 126.9375 324.464844 C 90.832031 311.296875 63.421875 284.828125 48.226562 252.609375 C 48.488281 252.53125 48.742188 252.445312 49.003906 252.367188 C 64.121094 284.351562 91.351562 310.625 127.214844 323.707031 C 142.960938 329.445312 159.070312 332.167969 174.914062 332.167969 C 231.777344 332.167969 285.171875 297.085938 305.777344 240.5625 C 307.34375 236.277344 308.679688 231.964844 309.804688 227.640625 C 310.070312 227.679688 310.332031 227.71875 310.605469 227.753906 C 309.46875 232.136719 308.117188 236.503906 306.535156 240.839844 C 285.808594 297.691406 232.105469 332.976562 174.914062 332.976562 M 40.535156 156.246094 C 40.269531 156.210938 39.996094 156.171875 39.730469 156.136719 C 40.761719 152.363281 41.953125 148.605469 43.316406 144.867188 C 64.042969 88.019531 117.742188 52.726562 174.933594 52.730469 C 190.871094 52.730469 207.078125 55.464844 222.910156 61.242188 C 252.265625 71.945312 275.867188 91.4375 291.832031 115.65625 C 291.59375 115.769531 291.34375 115.882812 291.09375 115.996094 C 275.21875 91.960938 251.773438 72.625 222.632812 62 C 206.886719 56.253906 190.777344 53.535156 174.933594 53.535156 C 118.070312 53.535156 64.679688 88.621094 44.074219 145.140625 C 42.730469 148.824219 41.554688 152.53125 40.535156 156.246094 " fill-opacity="1" fill-rule="nonzero"/><path fill="#4b4451" d="M 48.226562 252.609375 C 39.503906 234.105469 34.800781 213.707031 34.800781 192.839844 C 34.800781 180.667969 36.402344 168.339844 39.730469 156.136719 C 39.996094 156.171875 40.269531 156.210938 40.535156 156.246094 C 37.207031 168.414062 35.609375 180.703125 35.609375 192.839844 C 35.609375 213.621094 40.296875 233.941406 49.003906 252.367188 C 48.742188 252.445312 48.488281 252.53125 48.226562 252.609375 M 310.605469 227.753906 C 310.332031 227.71875 310.070312 227.679688 309.804688 227.640625 C 312.800781 216.0625 314.246094 204.390625 314.246094 192.859375 C 314.246094 165.3125 306.011719 138.582031 291.09375 115.996094 C 291.34375 115.882812 291.59375 115.769531 291.832031 115.65625 C 306.792969 138.351562 315.050781 165.199219 315.050781 192.859375 C 315.050781 204.429688 313.605469 216.144531 310.605469 227.753906 " fill-opacity="1" fill-rule="nonzero"/><path fill="#3b343e" d="M 174.917969 303.328125 C 162.355469 303.328125 149.578125 301.171875 137.09375 296.617188 C 109.972656 286.726562 89.070312 267.316406 76.796875 243.539062 C 76.996094 243.472656 77.203125 243.410156 77.410156 243.34375 C 89.617188 266.941406 110.378906 286.203125 137.3125 296.019531 C 149.726562 300.550781 162.429688 302.691406 174.917969 302.691406 C 219.75 302.691406 261.847656 275.03125 278.09375 230.46875 C 278.941406 228.144531 279.703125 225.808594 280.390625 223.464844 C 280.597656 223.496094 280.8125 223.523438 281.023438 223.554688 C 280.332031 225.9375 279.554688 228.316406 278.691406 230.6875 C 262.347656 275.507812 220.011719 303.328125 174.917969 303.328125 M 70.0625 160.238281 C 69.851562 160.207031 69.636719 160.183594 69.425781 160.152344 C 69.957031 158.433594 70.535156 156.722656 71.15625 155.011719 C 87.5 110.195312 129.839844 82.371094 174.933594 82.371094 C 187.5 82.371094 200.273438 84.53125 212.761719 89.085938 C 234.339844 96.953125 251.972656 110.84375 264.460938 128.164062 C 264.269531 128.25 264.066406 128.34375 263.875 128.4375 C 251.460938 111.261719 233.953125 97.488281 212.539062 89.679688 C 200.125 85.152344 187.421875 83.007812 174.933594 83.007812 C 130.105469 83.007812 88.003906 110.667969 71.753906 155.230469 C 71.148438 156.894531 70.582031 158.566406 70.0625 160.238281 " fill-opacity="1" fill-rule="nonzero"/><path fill="#4b4451" d="M 76.796875 243.539062 C 68.785156 228.023438 64.449219 210.648438 64.449219 192.835938 C 64.449219 181.992188 66.058594 170.992188 69.425781 160.152344 C 69.636719 160.183594 69.851562 160.207031 70.0625 160.238281 C 66.691406 171.046875 65.082031 182.023438 65.082031 192.835938 C 65.082031 210.578125 69.410156 227.890625 77.410156 243.34375 C 77.203125 243.410156 76.996094 243.472656 76.796875 243.539062 M 281.023438 223.554688 C 280.8125 223.523438 280.597656 223.496094 280.390625 223.464844 C 283.347656 213.300781 284.769531 203.011719 284.769531 192.855469 C 284.769531 169.5625 277.300781 147.011719 263.875 128.4375 C 264.066406 128.34375 264.269531 128.25 264.460938 128.164062 C 277.921875 146.824219 285.40625 169.46875 285.40625 192.855469 C 285.40625 203.035156 283.984375 213.359375 281.023438 223.554688 " fill-opacity="1" fill-rule="nonzero"/><path fill="#3b343e" d="M 174.917969 283.175781 C 164.648438 283.175781 154.199219 281.414062 143.996094 277.691406 C 122.964844 270.019531 106.515625 255.363281 96.3125 237.289062 C 96.519531 237.222656 96.726562 237.15625 96.933594 237.089844 C 107.066406 254.980469 123.378906 269.496094 144.210938 277.09375 C 154.347656 280.785156 164.71875 282.539062 174.917969 282.539062 C 211.527344 282.539062 245.902344 259.953125 259.164062 223.566406 C 259.507812 222.628906 259.835938 221.6875 260.144531 220.742188 C 260.359375 220.773438 260.570312 220.800781 260.785156 220.828125 C 260.464844 221.816406 260.121094 222.800781 259.761719 223.785156 C 246.402344 260.429688 211.785156 283.175781 174.917969 283.175781 M 90.402344 162.921875 C 90.1875 162.898438 89.972656 162.871094 89.757812 162.839844 C 89.867188 162.53125 89.976562 162.226562 90.089844 161.917969 C 103.449219 125.269531 138.0625 102.523438 174.929688 102.523438 C 185.199219 102.523438 195.648438 104.292969 205.859375 108.015625 C 222.15625 113.957031 235.703125 124.097656 245.726562 136.777344 C 245.527344 136.867188 245.328125 136.960938 245.128906 137.050781 C 235.1875 124.519531 221.769531 114.492188 205.644531 108.613281 C 195.5 104.914062 185.128906 103.160156 174.929688 103.160156 C 138.324219 103.160156 103.953125 125.746094 90.6875 162.132812 C 90.589844 162.398438 90.496094 162.664062 90.402344 162.921875 " fill-opacity="1" fill-rule="nonzero"/><path fill="#4b4451" d="M 96.3125 237.289062 C 88.730469 223.863281 84.601562 208.5625 84.601562 192.847656 C 84.601562 182.882812 86.257812 172.753906 89.757812 162.839844 C 89.972656 162.871094 90.1875 162.898438 90.402344 162.921875 C 86.898438 172.8125 85.238281 182.914062 85.238281 192.847656 C 85.238281 208.496094 89.363281 223.734375 96.933594 237.089844 C 96.726562 237.15625 96.519531 237.222656 96.3125 237.289062 M 260.785156 220.828125 C 260.570312 220.800781 260.359375 220.773438 260.144531 220.742188 C 263.171875 211.507812 264.617188 202.113281 264.617188 192.855469 C 264.617188 172.476562 257.613281 152.789062 245.128906 137.050781 C 245.328125 136.960938 245.527344 136.867188 245.726562 136.777344 C 258.234375 152.609375 265.25 172.386719 265.25 192.855469 C 265.25 202.136719 263.808594 211.566406 260.785156 220.828125 " fill-opacity="1" fill-rule="nonzero"/><path fill="#3b343e" d="M 174.914062 326.972656 C 159.664062 326.972656 144.144531 324.351562 128.988281 318.824219 C 101.792969 308.910156 79.734375 291.089844 64.496094 268.921875 C 60.527344 263.148438 57.019531 257.082031 54.003906 250.785156 C 55.582031 250.285156 57.160156 249.785156 58.746094 249.28125 C 61.585938 255.125 64.863281 260.761719 68.550781 266.128906 C 83.242188 287.484375 104.464844 304.636719 130.679688 314.195312 C 145.289062 319.523438 160.222656 322.046875 174.914062 322.046875 C 174.917969 322.046875 174.917969 322.046875 174.917969 322.046875 C 201.277344 322.046875 226.84375 313.910156 248.203125 299.226562 C 269.566406 284.535156 286.710938 263.3125 296.273438 237.09375 C 297.59375 233.472656 298.742188 229.832031 299.722656 226.179688 C 301.34375 226.414062 302.984375 226.648438 304.632812 226.886719 C 303.582031 230.867188 302.339844 234.835938 300.90625 238.78125 L 298.589844 237.9375 L 300.90625 238.78125 C 290.988281 265.984375 273.167969 288.039062 250.996094 303.285156 C 228.820312 318.527344 202.289062 326.972656 174.914062 326.972656 M 50.65625 157.625 C 49.011719 157.402344 47.367188 157.179688 45.730469 156.957031 C 46.667969 153.601562 47.742188 150.25 48.957031 146.921875 C 58.871094 119.722656 76.6875 97.664062 98.859375 82.421875 C 121.03125 67.171875 147.558594 58.734375 174.933594 58.726562 C 190.191406 58.726562 205.703125 61.355469 220.859375 66.878906 C 248.058594 76.792969 270.121094 94.613281 285.359375 116.785156 C 285.675781 117.246094 285.992188 117.707031 286.304688 118.171875 C 284.851562 118.832031 283.335938 119.527344 281.757812 120.246094 C 281.609375 120.019531 281.453125 119.796875 281.304688 119.574219 C 266.617188 98.214844 245.386719 81.070312 219.171875 71.507812 C 204.5625 66.179688 189.625 63.65625 174.933594 63.65625 C 174.933594 63.65625 174.933594 63.65625 174.929688 63.65625 C 148.574219 63.65625 123.007812 71.792969 101.648438 86.476562 C 80.289062 101.164062 63.140625 122.394531 53.582031 148.609375 C 52.492188 151.601562 51.515625 154.613281 50.65625 157.625 " fill-opacity="1" fill-rule="nonzero"/><path fill="#4b4451" d="M 54.003906 250.785156 C 45.425781 232.878906 40.804688 213.089844 40.804688 192.839844 C 40.804688 180.941406 42.40625 168.882812 45.730469 156.957031 C 47.367188 157.179688 49.011719 157.402344 50.65625 157.625 C 47.328125 169.328125 45.734375 181.164062 45.734375 192.839844 C 45.734375 212.578125 50.289062 231.867188 58.746094 249.28125 C 57.160156 249.785156 55.582031 250.285156 54.003906 250.785156 M 304.632812 226.886719 C 302.984375 226.648438 301.34375 226.414062 299.722656 226.179688 C 302.695312 215.101562 304.125 203.910156 304.125 192.859375 C 304.125 166.773438 296.15625 141.46875 281.757812 120.246094 C 283.335938 119.527344 284.851562 118.832031 286.304688 118.171875 C 300.953125 140.054688 309.046875 166.054688 309.046875 192.859375 C 309.054688 204.144531 307.613281 215.570312 304.632812 226.886719 " fill-opacity="1" fill-rule="nonzero"/><path fill="#3b343e" d="M 174.914062 319.578125 C 160.5 319.578125 145.839844 317.101562 131.523438 311.882812 C 105.824219 302.511719 84.984375 285.675781 70.578125 264.726562 C 67.027344 259.5625 63.863281 254.148438 61.121094 248.53125 C 62.609375 248.058594 64.109375 247.578125 65.605469 247.105469 C 68.179688 252.292969 71.121094 257.304688 74.414062 262.089844 C 88.292969 282.273438 108.351562 298.476562 133.117188 307.507812 C 146.921875 312.542969 161.035156 314.925781 174.914062 314.925781 C 174.917969 314.925781 174.914062 314.925781 174.917969 314.925781 C 199.824219 314.925781 223.980469 307.242188 244.164062 293.363281 C 264.347656 279.484375 280.550781 259.425781 289.582031 234.65625 C 290.734375 231.507812 291.742188 228.34375 292.617188 225.171875 C 294.152344 225.386719 295.707031 225.605469 297.261719 225.828125 C 296.320312 229.316406 295.21875 232.792969 293.960938 236.253906 C 284.589844 261.953125 267.75 282.792969 246.800781 297.199219 C 225.851562 311.601562 200.78125 319.578125 174.914062 319.578125 M 57.78125 158.589844 C 56.230469 158.378906 54.679688 158.175781 53.121094 157.964844 C 53.941406 155.113281 54.863281 152.277344 55.894531 149.449219 C 65.265625 123.75 82.101562 102.902344 103.054688 88.503906 C 124.003906 74.097656 149.074219 66.117188 174.941406 66.117188 C 189.347656 66.117188 204.007812 68.59375 218.324219 73.816406 C 244.027344 83.1875 264.871094 100.019531 279.273438 120.972656 C 279.34375 121.078125 279.414062 121.179688 279.484375 121.285156 C 278.089844 121.917969 276.65625 122.578125 275.1875 123.25 C 261.320312 103.230469 241.355469 87.167969 216.726562 78.1875 C 202.929688 73.15625 188.816406 70.773438 174.941406 70.773438 C 150.027344 70.773438 125.871094 78.460938 105.6875 92.335938 C 85.503906 106.21875 69.300781 126.273438 60.265625 151.042969 C 59.351562 153.550781 58.527344 156.070312 57.78125 158.589844 " fill-opacity="1" fill-rule="nonzero"/><path fill="#4b4451" d="M 61.121094 248.53125 C 52.722656 231.367188 48.191406 212.332031 48.191406 192.835938 C 48.191406 181.273438 49.789062 169.542969 53.121094 157.964844 C 54.679688 158.175781 56.230469 158.378906 57.78125 158.589844 C 54.445312 169.964844 52.851562 181.480469 52.851562 192.835938 C 52.851562 211.839844 57.324219 230.40625 65.605469 247.105469 C 64.109375 247.578125 62.609375 248.058594 61.121094 248.53125 M 297.261719 225.828125 C 295.707031 225.605469 294.152344 225.386719 292.617188 225.171875 C 295.582031 214.425781 297.003906 203.570312 297.003906 192.859375 C 297.003906 167.953125 289.316406 143.792969 275.4375 123.613281 C 275.355469 123.488281 275.273438 123.367188 275.1875 123.25 C 276.65625 122.578125 278.089844 121.917969 279.484375 121.285156 C 293.757812 142.167969 301.65625 167.121094 301.65625 192.859375 C 301.65625 203.789062 300.230469 214.867188 297.261719 225.828125 " fill-opacity="1" fill-rule="nonzero"/><path fill="#3b343e" d="M 174.917969 312.738281 C 161.285156 312.738281 147.414062 310.394531 133.875 305.457031 C 109.558594 296.589844 89.839844 280.664062 76.21875 260.847656 C 73.046875 256.238281 70.210938 251.421875 67.714844 246.433594 C 69.125 245.984375 70.550781 245.53125 71.964844 245.078125 C 74.292969 249.667969 76.921875 254.105469 79.84375 258.351562 C 92.976562 277.445312 111.949219 292.769531 135.378906 301.316406 C 148.4375 306.078125 161.789062 308.332031 174.917969 308.332031 C 174.917969 308.332031 174.917969 308.332031 174.921875 308.332031 C 198.484375 308.332031 221.335938 301.0625 240.429688 287.933594 C 259.519531 274.804688 274.851562 255.835938 283.390625 232.402344 C 284.378906 229.691406 285.261719 226.972656 286.03125 224.246094 C 287.488281 224.449219 288.953125 224.65625 290.433594 224.863281 C 289.59375 227.890625 288.625 230.90625 287.53125 233.910156 C 278.664062 258.222656 262.738281 277.941406 242.917969 291.5625 C 223.105469 305.1875 199.390625 312.734375 174.917969 312.738281 M 64.402344 159.480469 C 62.933594 159.285156 61.457031 159.085938 59.984375 158.890625 C 60.6875 156.515625 61.464844 154.152344 62.324219 151.796875 C 71.1875 127.484375 87.113281 107.765625 106.933594 94.140625 C 126.75 80.511719 150.46875 72.964844 174.941406 72.964844 C 188.574219 72.960938 202.441406 75.308594 215.988281 80.25 C 240.015625 89.011719 259.558594 104.671875 273.167969 124.171875 C 271.832031 124.78125 270.472656 125.40625 269.09375 126.042969 C 256.003906 107.554688 237.367188 92.734375 214.480469 84.382812 C 201.421875 79.621094 188.066406 77.367188 174.941406 77.367188 C 174.933594 77.367188 174.933594 77.367188 174.933594 77.367188 C 151.371094 77.367188 128.519531 84.640625 109.429688 97.765625 C 90.335938 110.898438 75.007812 129.875 66.464844 153.308594 C 65.714844 155.359375 65.027344 157.414062 64.402344 159.480469 " fill-opacity="1" fill-rule="nonzero"/><path fill="#4b4451" d="M 67.714844 246.433594 C 59.488281 229.964844 55.042969 211.625 55.042969 192.847656 C 55.042969 181.582031 56.636719 170.160156 59.984375 158.890625 C 61.457031 159.085938 62.933594 159.285156 64.402344 159.480469 C 61.046875 170.554688 59.445312 181.777344 59.445312 192.847656 C 59.445312 211.167969 63.839844 229.050781 71.964844 245.078125 C 70.550781 245.53125 69.125 245.984375 67.714844 246.433594 M 290.433594 224.863281 C 288.953125 224.65625 287.488281 224.449219 286.03125 224.246094 C 288.992188 213.816406 290.410156 203.269531 290.410156 192.859375 C 290.410156 169.300781 283.136719 146.445312 270.007812 127.351562 C 269.707031 126.910156 269.40625 126.476562 269.09375 126.042969 C 270.472656 125.40625 271.832031 124.78125 273.167969 124.171875 C 273.324219 124.402344 273.484375 124.628906 273.640625 124.859375 C 287.265625 144.671875 294.8125 168.390625 294.8125 192.859375 C 294.8125 203.476562 293.394531 214.226562 290.433594 224.863281 " fill-opacity="1" fill-rule="nonzero"/><path fill="#3b343e" d="M 174.917969 300.730469 C 162.648438 300.730469 150.171875 298.613281 137.984375 294.171875 C 111.648438 284.566406 91.324219 265.777344 79.308594 242.738281 C 80.609375 242.320312 81.910156 241.90625 83.207031 241.488281 C 94.808594 263.386719 114.246094 281.230469 139.363281 290.390625 C 151.109375 294.667969 163.113281 296.699219 174.917969 296.699219 C 217.300781 296.695312 257.105469 270.542969 272.464844 228.414062 C 273.167969 226.496094 273.800781 224.574219 274.382812 222.644531 C 275.71875 222.824219 277.066406 223.011719 278.425781 223.199219 C 277.773438 225.402344 277.050781 227.605469 276.253906 229.792969 L 274.359375 229.105469 L 276.253906 229.792969 C 260.289062 273.558594 218.953125 300.730469 174.917969 300.730469 M 76.097656 161.039062 C 74.753906 160.863281 73.394531 160.683594 72.042969 160.5 C 72.523438 158.96875 73.046875 157.433594 73.605469 155.90625 C 89.566406 112.140625 130.902344 84.972656 174.929688 84.972656 C 187.199219 84.972656 199.679688 87.082031 211.871094 91.527344 C 232.757812 99.148438 249.875 112.554688 262.050781 129.269531 C 260.8125 129.839844 259.574219 130.410156 258.316406 130.988281 C 246.625 115.199219 230.332031 102.546875 210.488281 95.3125 C 198.746094 91.03125 186.738281 89.003906 174.929688 89.003906 C 132.550781 89.007812 92.75 115.152344 77.386719 157.289062 C 76.933594 158.535156 76.503906 159.789062 76.097656 161.039062 " fill-opacity="1" fill-rule="nonzero"/><path fill="#4b4451" d="M 79.308594 242.738281 C 71.359375 227.488281 67.046875 210.378906 67.046875 192.839844 C 67.046875 182.105469 68.660156 171.21875 72.042969 160.5 C 73.394531 160.683594 74.753906 160.863281 76.097656 161.039062 C 72.699219 171.578125 71.078125 182.289062 71.078125 192.839844 C 71.078125 209.957031 75.34375 226.652344 83.207031 241.488281 C 81.910156 241.90625 80.609375 242.320312 79.308594 242.738281 M 278.425781 223.199219 C 277.066406 223.011719 275.71875 222.824219 274.382812 222.644531 C 277.355469 212.757812 278.773438 202.742188 278.773438 192.863281 C 278.773438 170.4375 271.453125 148.730469 258.316406 130.988281 C 259.574219 130.410156 260.8125 129.839844 262.050781 129.269531 C 275.386719 147.574219 282.804688 169.851562 282.804688 192.863281 C 282.804688 202.921875 281.382812 213.125 278.425781 223.199219 " fill-opacity="1" fill-rule="nonzero"/><path fill="#3b343e" d="M 174.921875 294.890625 C 163.316406 294.890625 151.511719 292.898438 139.984375 288.695312 C 119.285156 281.148438 102.5 267.589844 90.90625 250.722656 C 88.734375 247.570312 86.75 244.300781 84.953125 240.929688 C 86.253906 240.515625 87.558594 240.097656 88.855469 239.679688 C 99.855469 259.925781 118.011719 276.398438 141.359375 284.90625 C 152.445312 288.949219 163.777344 290.863281 174.921875 290.867188 C 214.925781 290.863281 252.492188 266.183594 266.984375 226.417969 C 267.535156 224.898438 268.050781 223.382812 268.523438 221.855469 C 269.859375 222.035156 271.210938 222.214844 272.574219 222.402344 C 272.027344 224.203125 271.425781 226.003906 270.773438 227.796875 L 268.878906 227.109375 L 270.773438 227.796875 C 255.675781 269.195312 216.574219 294.898438 174.921875 294.890625 M 81.984375 161.816406 C 80.632812 161.636719 79.277344 161.464844 77.917969 161.277344 C 78.28125 160.152344 78.671875 159.03125 79.082031 157.90625 C 94.183594 116.507812 133.28125 90.808594 174.933594 90.808594 C 186.539062 90.808594 198.34375 92.804688 209.871094 97.007812 C 229.238281 104.074219 245.167969 116.386719 256.640625 131.757812 C 255.398438 132.328125 254.148438 132.898438 252.890625 133.484375 C 241.914062 119.039062 226.800781 107.472656 208.492188 100.792969 C 197.40625 96.753906 186.078125 94.839844 174.933594 94.839844 C 134.929688 94.84375 97.367188 119.519531 82.871094 159.289062 C 82.558594 160.128906 82.265625 160.972656 81.984375 161.816406 " fill-opacity="1" fill-rule="nonzero"/><path fill="#4b4451" d="M 84.953125 240.929688 C 77.128906 226.285156 72.882812 209.777344 72.882812 192.839844 C 72.882812 182.367188 74.507812 171.734375 77.917969 161.277344 C 79.277344 161.464844 80.632812 161.636719 81.984375 161.816406 C 78.546875 172.085938 76.914062 182.546875 76.914062 192.839844 C 76.914062 209.355469 81.121094 225.449219 88.855469 239.679688 C 87.558594 240.097656 86.253906 240.515625 84.953125 240.929688 M 272.574219 222.402344 C 271.210938 222.214844 269.859375 222.035156 268.523438 221.855469 C 271.511719 212.234375 272.9375 202.480469 272.9375 192.859375 C 272.9375 171.277344 265.757812 150.402344 252.890625 133.484375 C 254.148438 132.898438 255.398438 132.328125 256.640625 131.757812 C 269.691406 149.246094 276.96875 170.695312 276.96875 192.859375 C 276.96875 202.660156 275.546875 212.601562 272.574219 222.402344 " fill-opacity="1" fill-rule="nonzero"/><path fill="#3b343e" d="M 174.917969 289.496094 C 163.925781 289.496094 152.746094 287.605469 141.828125 283.625 C 122.234375 276.480469 106.335938 263.640625 95.351562 247.664062 C 93.484375 244.949219 91.757812 242.140625 90.179688 239.257812 C 91.484375 238.835938 92.792969 238.417969 94.089844 238.003906 C 104.535156 256.722656 121.492188 271.917969 143.210938 279.839844 C 153.679688 283.652344 164.390625 285.464844 174.917969 285.464844 C 212.714844 285.460938 248.214844 262.140625 261.910156 224.566406 C 262.328125 223.425781 262.71875 222.277344 263.085938 221.132812 C 264.433594 221.308594 265.777344 221.488281 267.144531 221.671875 C 266.699219 223.101562 266.214844 224.527344 265.695312 225.949219 L 263.804688 225.253906 L 265.695312 225.949219 C 258.550781 245.542969 245.710938 261.445312 229.738281 272.425781 C 213.757812 283.410156 194.644531 289.488281 174.917969 289.496094 M 87.441406 162.539062 C 86.085938 162.359375 84.734375 162.183594 83.363281 162.003906 C 83.617188 161.25 83.882812 160.503906 84.152344 159.753906 C 98.453125 120.546875 135.484375 96.207031 174.929688 96.210938 C 185.917969 96.210938 197.101562 98.101562 208.023438 102.082031 C 225.972656 108.628906 240.804688 119.941406 251.613281 134.066406 C 250.371094 134.640625 249.117188 135.214844 247.855469 135.792969 C 237.550781 122.59375 223.539062 112.027344 206.644531 105.867188 C 196.167969 102.046875 185.460938 100.242188 174.929688 100.242188 C 137.132812 100.242188 101.636719 123.558594 87.9375 161.132812 C 87.773438 161.601562 87.605469 162.066406 87.441406 162.539062 " fill-opacity="1" fill-rule="nonzero"/><path fill="#4b4451" d="M 90.179688 239.257812 C 82.472656 225.171875 78.28125 209.214844 78.28125 192.839844 C 78.28125 182.601562 79.921875 172.203125 83.363281 162.003906 C 84.734375 162.183594 86.085938 162.359375 87.441406 162.539062 C 83.960938 172.5625 82.3125 182.78125 82.3125 192.839844 C 82.3125 208.792969 86.464844 224.335938 94.089844 238.003906 C 92.792969 238.417969 91.484375 238.835938 90.179688 239.257812 M 267.144531 221.671875 C 265.777344 221.488281 264.433594 221.308594 263.085938 221.132812 C 266.101562 211.757812 267.535156 202.238281 267.535156 192.859375 C 267.535156 172.058594 260.472656 151.953125 247.855469 135.792969 C 249.117188 135.214844 250.371094 134.640625 251.613281 134.066406 C 264.414062 150.792969 271.566406 171.46875 271.566406 192.859375 C 271.566406 202.417969 270.136719 212.121094 267.144531 221.671875 " fill-opacity="1" fill-rule="nonzero"/><path fill="#3b343e" d="M 174.917969 279.09375 C 165.113281 279.09375 155.136719 277.410156 145.394531 273.859375 C 125.601562 266.640625 110.054688 252.929688 100.28125 236.011719 C 101.335938 235.671875 102.382812 235.335938 103.425781 235.003906 C 112.847656 251.011719 127.679688 263.96875 146.496094 270.828125 C 155.882812 274.253906 165.480469 275.871094 174.917969 275.875 C 208.804688 275.871094 240.625 254.96875 252.902344 221.28125 C 253.074219 220.8125 253.242188 220.339844 253.402344 219.867188 C 254.484375 220.007812 255.566406 220.148438 256.660156 220.292969 C 256.429688 220.988281 256.183594 221.691406 255.929688 222.386719 C 243.167969 257.375 210.121094 279.097656 174.917969 279.09375 M 97.175781 163.808594 C 96.089844 163.667969 94.996094 163.527344 93.902344 163.382812 C 93.90625 163.363281 93.914062 163.339844 93.921875 163.316406 C 106.683594 128.324219 139.730469 106.601562 174.929688 106.609375 C 184.738281 106.609375 194.71875 108.292969 204.46875 111.847656 C 219.691406 117.398438 232.40625 126.796875 241.90625 138.535156 C 240.902344 139 239.890625 139.464844 238.886719 139.929688 C 229.796875 128.921875 217.746094 120.117188 203.363281 114.875 C 193.96875 111.449219 184.371094 109.832031 174.929688 109.832031 C 141.253906 109.832031 109.613281 130.484375 97.175781 163.808594 " fill-opacity="1" fill-rule="nonzero"/><path fill="#4b4451" d="M 100.28125 236.011719 C 92.777344 223.019531 88.683594 208.136719 88.683594 192.847656 C 88.683594 183.058594 90.363281 173.105469 93.902344 163.382812 C 94.996094 163.527344 96.089844 163.667969 97.175781 163.808594 C 97.097656 164.015625 97.023438 164.21875 96.949219 164.417969 C 93.523438 173.808594 91.90625 183.40625 91.902344 192.847656 C 91.90625 207.804688 95.980469 222.355469 103.425781 235.003906 C 102.382812 235.335938 101.335938 235.671875 100.28125 236.011719 M 256.660156 220.292969 C 255.566406 220.148438 254.484375 220.007812 253.402344 219.867188 C 256.488281 210.929688 257.945312 201.820312 257.945312 192.855469 C 257.945312 173.4375 251.078125 154.695312 238.886719 139.929688 C 239.890625 139.464844 240.902344 139 241.90625 138.535156 C 254.242188 153.777344 261.167969 172.96875 261.167969 192.855469 C 261.167969 201.960938 259.714844 211.214844 256.660156 220.292969 " fill-opacity="1" fill-rule="nonzero"/><path fill="#3b343e" d="M 174.921875 274.429688 C 165.644531 274.429688 156.203125 272.832031 146.984375 269.472656 C 128.609375 262.773438 114.097656 250.148438 104.832031 234.550781 C 105.886719 234.210938 106.9375 233.871094 107.980469 233.535156 C 116.894531 248.230469 130.6875 260.101562 148.089844 266.449219 C 156.953125 269.675781 166.011719 271.203125 174.921875 271.203125 C 206.902344 271.203125 236.9375 251.476562 248.523438 219.6875 C 248.574219 219.542969 248.628906 219.402344 248.675781 219.261719 C 249.753906 219.398438 250.847656 219.539062 251.949219 219.675781 C 251.816406 220.050781 251.683594 220.417969 251.550781 220.785156 C 239.480469 253.882812 208.222656 274.433594 174.921875 274.429688 M 101.925781 164.425781 C 100.839844 164.285156 99.742188 164.148438 98.640625 164.003906 C 110.949219 131.4375 141.9375 111.269531 174.929688 111.269531 C 184.210938 111.269531 193.644531 112.863281 202.867188 116.226562 C 216.867188 121.332031 228.625 129.875 237.53125 140.550781 C 236.515625 141.015625 235.503906 141.484375 234.496094 141.949219 C 226.011719 132.003906 214.917969 124.050781 201.761719 119.253906 C 192.902344 116.023438 183.839844 114.492188 174.929688 114.492188 C 143.488281 114.492188 113.925781 133.570312 101.925781 164.425781 " fill-opacity="1" fill-rule="nonzero"/><path fill="#4b4451" d="M 104.832031 234.550781 C 97.410156 222.058594 93.34375 207.652344 93.34375 192.847656 C 93.34375 183.566406 94.941406 174.132812 98.304688 164.914062 C 98.414062 164.605469 98.527344 164.304688 98.640625 164.003906 C 99.742188 164.148438 100.839844 164.285156 101.925781 164.425781 C 101.71875 164.957031 101.523438 165.484375 101.328125 166.019531 C 98.097656 174.875 96.566406 183.9375 96.566406 192.847656 C 96.566406 207.316406 100.609375 221.390625 107.980469 233.535156 C 106.9375 233.871094 105.886719 234.210938 104.832031 234.550781 M 251.949219 219.675781 C 250.847656 219.539062 249.753906 219.398438 248.675781 219.261719 C 251.804688 210.535156 253.285156 201.621094 253.285156 192.855469 C 253.285156 174.109375 246.507812 156.035156 234.496094 141.949219 C 235.503906 141.484375 236.515625 141.015625 237.53125 140.550781 C 249.667969 155.113281 256.507812 173.644531 256.507812 192.855469 C 256.507812 201.761719 255.035156 210.816406 251.949219 219.675781 " fill-opacity="1" fill-rule="nonzero"/><path fill="#3b343e" d="M 174.921875 270.113281 C 166.136719 270.113281 157.195312 268.601562 148.46875 265.417969 C 131.398438 259.191406 117.847656 247.574219 109.050781 233.191406 C 110.109375 232.851562 111.164062 232.507812 112.207031 232.175781 C 120.648438 245.648438 133.476562 256.523438 149.570312 262.390625 C 157.945312 265.441406 166.503906 266.890625 174.921875 266.890625 C 204.976562 266.890625 233.207031 248.453125 244.289062 218.699219 C 245.066406 218.800781 245.855469 218.902344 246.652344 219.003906 L 247.496094 219.308594 C 236.066406 250.652344 206.457031 270.113281 174.921875 270.113281 M 247.496094 219.308594 L 246.652344 219.003906 C 246.953125 219.042969 247.261719 219.078125 247.566406 219.117188 C 247.542969 219.183594 247.519531 219.242188 247.496094 219.308594 M 106.339844 165 C 105.253906 164.863281 104.148438 164.714844 103.042969 164.578125 C 114.945312 134.296875 144.007812 115.585938 174.929688 115.585938 C 183.71875 115.585938 192.65625 117.101562 201.390625 120.285156 C 214.253906 124.976562 225.121094 132.734375 233.457031 142.429688 C 232.433594 142.898438 231.425781 143.367188 230.410156 143.835938 C 222.503906 134.867188 212.304688 127.695312 200.285156 123.308594 C 191.910156 120.257812 183.351562 118.8125 174.929688 118.8125 C 145.554688 118.8125 117.921875 136.429688 106.339844 165 " fill-opacity="1" fill-rule="nonzero"/><path fill="#4b4451" d="M 109.050781 233.191406 C 101.699219 221.164062 97.664062 207.203125 97.664062 192.839844 C 97.664062 184.054688 99.171875 175.117188 102.355469 166.390625 C 102.578125 165.78125 102.808594 165.175781 103.042969 164.578125 C 104.148438 164.714844 105.253906 164.863281 106.339844 165 C 106.007812 165.824219 105.6875 166.65625 105.382812 167.496094 C 102.328125 175.867188 100.886719 184.421875 100.882812 192.839844 C 100.886719 206.867188 104.902344 220.496094 112.207031 232.175781 C 111.164062 232.507812 110.109375 232.851562 109.050781 233.191406 M 247.566406 219.117188 C 247.261719 219.078125 246.953125 219.042969 246.652344 219.003906 L 245.984375 218.757812 L 246.652344 219.003906 C 245.855469 218.902344 245.066406 218.800781 244.289062 218.699219 C 244.347656 218.539062 244.410156 218.371094 244.472656 218.203125 C 247.519531 209.832031 248.964844 201.273438 248.964844 192.859375 C 248.964844 174.734375 242.257812 157.269531 230.410156 143.835938 C 231.425781 143.367188 232.433594 142.898438 233.457031 142.429688 C 245.425781 156.351562 252.1875 174.273438 252.1875 192.859375 C 252.1875 201.582031 250.699219 210.453125 247.566406 219.117188 " fill-opacity="1" fill-rule="nonzero"/><path fill="#141012" d="M 239.367188 216.347656 C 226.386719 251.9375 187.019531 270.265625 151.433594 257.289062 C 115.839844 244.316406 97.515625 204.945312 110.488281 169.355469 C 123.464844 133.769531 162.832031 115.433594 198.421875 128.414062 C 234.011719 141.390625 252.339844 180.757812 239.367188 216.347656 " fill-opacity="1" fill-rule="nonzero"/><path fill="#f14624" d="M 223.464844 210.546875 C 213.695312 237.359375 184.039062 251.160156 157.234375 241.390625 C 130.417969 231.617188 116.617188 201.960938 126.390625 175.152344 C 136.160156 148.347656 165.820312 134.539062 192.628906 144.308594 C 219.433594 154.085938 233.238281 183.742188 223.464844 210.546875 " fill-opacity="1" fill-rule="nonzero"/><path fill="#d53620" d="M 131.523438 169.851562 C 133.195312 173.78125 135.851562 177.085938 139.121094 179.84375 C 145.347656 185.09375 152.53125 188.769531 159.929688 192.070312 C 174.746094 198.671875 191.011719 203.085938 207.339844 202.464844 C 213.90625 202.222656 220.152344 201.171875 226.183594 199.304688 C 229.152344 175.902344 215.71875 152.734375 192.628906 144.308594 C 168.777344 135.613281 142.683594 145.59375 130.335938 166.777344 C 130.707031 167.804688 131.089844 168.828125 131.523438 169.851562 " fill-opacity="1" fill-rule="nonzero"/><path fill="#141012" d="M 190.308594 198.457031 C 187.214844 206.960938 177.8125 211.335938 169.3125 208.238281 C 160.820312 205.136719 156.445312 195.734375 159.535156 187.242188 C 162.640625 178.742188 172.042969 174.371094 180.535156 177.46875 C 189.039062 180.5625 193.410156 189.960938 190.308594 198.457031 " fill-opacity="1" fill-rule="nonzero"/><path fill="#0a0606" d="M 182.742188 195.699219 C 181.167969 200.019531 176.390625 202.238281 172.082031 200.664062 C 167.761719 199.089844 165.539062 194.320312 167.113281 190.003906 C 168.6875 185.691406 173.460938 183.464844 177.773438 185.035156 C 182.089844 186.609375 184.316406 191.386719 182.742188 195.699219 " fill-opacity="1" fill-rule="nonzero"/><path fill="#9a9898" d="M 324.128906 77.238281 L 324.128906 159.605469 C 324.128906 161.632812 323.730469 163.8125 322.960938 165.988281 C 321.820312 169.246094 319.839844 172.46875 317.382812 175.074219 C 314.933594 177.6875 312.023438 179.664062 309.148438 180.652344 L 280.90625 190.441406 L 284.09375 199.644531 L 312.335938 189.851562 C 315.4375 188.773438 318.300781 187.121094 320.863281 185.082031 C 324.703125 182.015625 327.890625 178.09375 330.179688 173.726562 C 332.460938 169.363281 333.859375 164.535156 333.863281 159.605469 L 333.863281 77.238281 L 324.128906 77.238281 " fill-opacity="1" fill-rule="nonzero"/><path fill="#d3d2d2" d="M 284.457031 194.003906 C 285.808594 197.992188 284.617188 201.996094 279.523438 203.726562 L 264.160156 208.933594 C 259.070312 210.660156 256.605469 207.890625 255.253906 203.902344 C 253.902344 199.910156 254.171875 196.214844 259.261719 194.492188 L 274.628906 189.28125 C 279.722656 187.558594 283.097656 190.019531 284.457031 194.003906 " fill-opacity="1" fill-rule="nonzero"/><path fill="#b0aeaf" d="M 282.304688 194.730469 C 282.675781 195.832031 282.484375 196.902344 281.875 197.109375 L 269.800781 201.203125 C 269.179688 201.40625 268.382812 200.675781 268.011719 199.578125 C 267.636719 198.472656 267.832031 197.414062 268.441406 197.203125 L 280.519531 193.109375 C 281.128906 192.902344 281.929688 193.625 282.304688 194.730469 " fill-opacity="1" fill-rule="nonzero"/><path fill="#b0aeaf" d="M 292.066406 200.546875 L 282.382812 203.824219 L 276.835938 187.457031 L 286.519531 184.175781 L 292.066406 200.546875 " fill-opacity="1" fill-rule="nonzero"/><path fill="#918f8f" d="M 345.707031 72.589844 C 345.707031 77.308594 342.636719 81.132812 338.84375 81.132812 L 321.410156 81.132812 C 317.621094 81.132812 314.554688 77.308594 314.554688 72.589844 L 314.554688 49.269531 C 314.554688 44.546875 317.621094 40.726562 321.410156 40.726562 L 338.84375 40.726562 C 342.636719 40.726562 345.707031 44.546875 345.707031 49.269531 L 345.707031 72.589844 " fill-opacity="1" fill-rule="nonzero"/><path fill="#a9a8a8" d="M 342.058594 68.367188 C 342.058594 72.457031 339.703125 75.777344 336.800781 75.777344 L 323.453125 75.777344 C 320.554688 75.777344 318.203125 72.457031 318.203125 68.367188 L 318.203125 48.140625 C 318.203125 44.046875 320.554688 40.726562 323.453125 40.726562 L 336.800781 40.726562 C 339.703125 40.726562 342.058594 44.046875 342.058594 48.140625 L 342.058594 68.367188 " fill-opacity="1" fill-rule="nonzero"/><path fill="#918f8f" d="M 336.289062 52.09375 C 336.289062 55.492188 333.53125 58.25 330.132812 58.25 C 326.722656 58.25 323.964844 55.492188 323.964844 52.09375 C 323.964844 48.691406 326.722656 45.929688 330.132812 45.929688 C 333.53125 45.929688 336.289062 48.691406 336.289062 52.09375 " fill-opacity="1" fill-rule="nonzero"/></svg>